<mxfile host="app.diagrams.net" modified="2021-05-12T04:46:04.366Z" agent="5.0 (Macintosh; Intel Mac OS X 11_2_0) AppleWebKit/537.36 (KHTML, like Gecko) Chrome/88.0.4324.146 Safari/537.36" etag="RVsHqMYUqtXMlzH3RYwt" version="14.6.11" type="github">
  <diagram id="r_dpZRQQ6k5GukbJklo0" name="业务流程图">
    <mxGraphModel dx="1179" dy="601" grid="1" gridSize="10" guides="1" tooltips="1" connect="1" arrows="1" fold="1" page="1" pageScale="1" pageWidth="827" pageHeight="1169" math="0" shadow="0">
      <root>
        <mxCell id="0" />
        <mxCell id="1" parent="0" />
        <mxCell id="ywe2W4ERjsgmAIUgEcNF-4" value="客户（GIFI）" style="text;html=1;strokeColor=none;fillColor=none;align=center;verticalAlign=middle;whiteSpace=wrap;rounded=0;" vertex="1" parent="1">
          <mxGeometry x="40" y="30" width="100" height="20" as="geometry" />
        </mxCell>
        <mxCell id="ywe2W4ERjsgmAIUgEcNF-5" value="接单员" style="text;html=1;strokeColor=none;fillColor=none;align=center;verticalAlign=middle;whiteSpace=wrap;rounded=0;" vertex="1" parent="1">
          <mxGeometry x="180" y="30" width="100" height="20" as="geometry" />
        </mxCell>
        <mxCell id="ywe2W4ERjsgmAIUgEcNF-6" value="工厂（供应商）" style="text;html=1;strokeColor=none;fillColor=none;align=center;verticalAlign=middle;whiteSpace=wrap;rounded=0;" vertex="1" parent="1">
          <mxGeometry x="340" y="30" width="100" height="20" as="geometry" />
        </mxCell>
        <mxCell id="ywe2W4ERjsgmAIUgEcNF-7" value="关务员" style="text;html=1;strokeColor=none;fillColor=none;align=center;verticalAlign=middle;whiteSpace=wrap;rounded=0;" vertex="1" parent="1">
          <mxGeometry x="520" y="30" width="100" height="20" as="geometry" />
        </mxCell>
        <mxCell id="ywe2W4ERjsgmAIUgEcNF-37" value="" style="edgeStyle=orthogonalEdgeStyle;rounded=0;orthogonalLoop=1;jettySize=auto;html=1;" edge="1" parent="1" source="ywe2W4ERjsgmAIUgEcNF-8" target="ywe2W4ERjsgmAIUgEcNF-9">
          <mxGeometry relative="1" as="geometry" />
        </mxCell>
        <mxCell id="ywe2W4ERjsgmAIUgEcNF-8" value="邮件发送&lt;br&gt;订单" style="rounded=0;whiteSpace=wrap;html=1;" vertex="1" parent="1">
          <mxGeometry x="40" y="80" width="90" height="40" as="geometry" />
        </mxCell>
        <mxCell id="ywe2W4ERjsgmAIUgEcNF-40" value="" style="edgeStyle=orthogonalEdgeStyle;rounded=0;orthogonalLoop=1;jettySize=auto;html=1;" edge="1" parent="1" source="ywe2W4ERjsgmAIUgEcNF-9">
          <mxGeometry relative="1" as="geometry">
            <mxPoint x="230" y="140" as="targetPoint" />
          </mxGeometry>
        </mxCell>
        <mxCell id="ywe2W4ERjsgmAIUgEcNF-9" value="接收邮件&lt;br&gt;订单" style="rounded=0;whiteSpace=wrap;html=1;" vertex="1" parent="1">
          <mxGeometry x="185" y="80" width="90" height="40" as="geometry" />
        </mxCell>
        <mxCell id="ywe2W4ERjsgmAIUgEcNF-42" style="edgeStyle=orthogonalEdgeStyle;rounded=0;orthogonalLoop=1;jettySize=auto;html=1;entryX=0.5;entryY=0;entryDx=0;entryDy=0;" edge="1" parent="1" source="ywe2W4ERjsgmAIUgEcNF-10" target="ywe2W4ERjsgmAIUgEcNF-17">
          <mxGeometry relative="1" as="geometry" />
        </mxCell>
        <mxCell id="ywe2W4ERjsgmAIUgEcNF-10" value="导入邮件&lt;br&gt;订单" style="rounded=0;whiteSpace=wrap;html=1;" vertex="1" parent="1">
          <mxGeometry x="185" y="140" width="90" height="40" as="geometry" />
        </mxCell>
        <mxCell id="ywe2W4ERjsgmAIUgEcNF-45" value="" style="edgeStyle=orthogonalEdgeStyle;rounded=0;orthogonalLoop=1;jettySize=auto;html=1;entryX=0.5;entryY=0;entryDx=0;entryDy=0;" edge="1" parent="1" source="ywe2W4ERjsgmAIUgEcNF-14" target="ywe2W4ERjsgmAIUgEcNF-15">
          <mxGeometry relative="1" as="geometry" />
        </mxCell>
        <mxCell id="ywe2W4ERjsgmAIUgEcNF-14" value="完善订单信息" style="rounded=0;whiteSpace=wrap;html=1;" vertex="1" parent="1">
          <mxGeometry x="340" y="250" width="90" height="40" as="geometry" />
        </mxCell>
        <mxCell id="ywe2W4ERjsgmAIUgEcNF-46" style="edgeStyle=orthogonalEdgeStyle;rounded=0;orthogonalLoop=1;jettySize=auto;html=1;entryX=0.5;entryY=0;entryDx=0;entryDy=0;" edge="1" parent="1" source="ywe2W4ERjsgmAIUgEcNF-15" target="ywe2W4ERjsgmAIUgEcNF-16">
          <mxGeometry relative="1" as="geometry" />
        </mxCell>
        <mxCell id="ywe2W4ERjsgmAIUgEcNF-15" value="下载订单&lt;br&gt;报关表格" style="rounded=0;whiteSpace=wrap;html=1;" vertex="1" parent="1">
          <mxGeometry x="340" y="320" width="90" height="40" as="geometry" />
        </mxCell>
        <mxCell id="ywe2W4ERjsgmAIUgEcNF-47" style="edgeStyle=orthogonalEdgeStyle;rounded=0;orthogonalLoop=1;jettySize=auto;html=1;entryX=0.5;entryY=0;entryDx=0;entryDy=0;" edge="1" parent="1" source="ywe2W4ERjsgmAIUgEcNF-16" target="ywe2W4ERjsgmAIUgEcNF-19">
          <mxGeometry relative="1" as="geometry" />
        </mxCell>
        <mxCell id="ywe2W4ERjsgmAIUgEcNF-16" value="完善订单&lt;br&gt;报关表格" style="rounded=0;whiteSpace=wrap;html=1;" vertex="1" parent="1">
          <mxGeometry x="340" y="390" width="90" height="40" as="geometry" />
        </mxCell>
        <mxCell id="ywe2W4ERjsgmAIUgEcNF-43" style="edgeStyle=orthogonalEdgeStyle;rounded=0;orthogonalLoop=1;jettySize=auto;html=1;entryX=0;entryY=0.5;entryDx=0;entryDy=0;" edge="1" parent="1" source="ywe2W4ERjsgmAIUgEcNF-17" target="ywe2W4ERjsgmAIUgEcNF-18">
          <mxGeometry relative="1" as="geometry" />
        </mxCell>
        <mxCell id="ywe2W4ERjsgmAIUgEcNF-17" value="通知工厂" style="rounded=0;whiteSpace=wrap;html=1;" vertex="1" parent="1">
          <mxGeometry x="185" y="200" width="90" height="40" as="geometry" />
        </mxCell>
        <mxCell id="ywe2W4ERjsgmAIUgEcNF-44" value="" style="edgeStyle=orthogonalEdgeStyle;rounded=0;orthogonalLoop=1;jettySize=auto;html=1;" edge="1" parent="1" source="ywe2W4ERjsgmAIUgEcNF-18">
          <mxGeometry relative="1" as="geometry">
            <mxPoint x="385" y="250" as="targetPoint" />
          </mxGeometry>
        </mxCell>
        <mxCell id="ywe2W4ERjsgmAIUgEcNF-18" value="接受订单&lt;br&gt;通知" style="rounded=0;whiteSpace=wrap;html=1;" vertex="1" parent="1">
          <mxGeometry x="340" y="180" width="90" height="40" as="geometry" />
        </mxCell>
        <mxCell id="ywe2W4ERjsgmAIUgEcNF-48" style="edgeStyle=orthogonalEdgeStyle;rounded=0;orthogonalLoop=1;jettySize=auto;html=1;entryX=0.5;entryY=0;entryDx=0;entryDy=0;" edge="1" parent="1" source="ywe2W4ERjsgmAIUgEcNF-19" target="ywe2W4ERjsgmAIUgEcNF-20">
          <mxGeometry relative="1" as="geometry" />
        </mxCell>
        <mxCell id="ywe2W4ERjsgmAIUgEcNF-19" value="上传订单&lt;br&gt;报关表格" style="rounded=0;whiteSpace=wrap;html=1;" vertex="1" parent="1">
          <mxGeometry x="340" y="450" width="90" height="40" as="geometry" />
        </mxCell>
        <mxCell id="ywe2W4ERjsgmAIUgEcNF-49" value="" style="edgeStyle=orthogonalEdgeStyle;rounded=0;orthogonalLoop=1;jettySize=auto;html=1;" edge="1" parent="1" source="ywe2W4ERjsgmAIUgEcNF-20" target="ywe2W4ERjsgmAIUgEcNF-21">
          <mxGeometry relative="1" as="geometry" />
        </mxCell>
        <mxCell id="ywe2W4ERjsgmAIUgEcNF-20" value="提交订单" style="rounded=0;whiteSpace=wrap;html=1;" vertex="1" parent="1">
          <mxGeometry x="340" y="520" width="90" height="40" as="geometry" />
        </mxCell>
        <mxCell id="ywe2W4ERjsgmAIUgEcNF-50" style="edgeStyle=orthogonalEdgeStyle;rounded=0;orthogonalLoop=1;jettySize=auto;html=1;entryX=0;entryY=0.5;entryDx=0;entryDy=0;" edge="1" parent="1" source="ywe2W4ERjsgmAIUgEcNF-21" target="ywe2W4ERjsgmAIUgEcNF-22">
          <mxGeometry relative="1" as="geometry" />
        </mxCell>
        <mxCell id="ywe2W4ERjsgmAIUgEcNF-21" value="通知关务人员" style="rounded=0;whiteSpace=wrap;html=1;" vertex="1" parent="1">
          <mxGeometry x="340" y="585" width="90" height="40" as="geometry" />
        </mxCell>
        <mxCell id="ywe2W4ERjsgmAIUgEcNF-51" style="edgeStyle=orthogonalEdgeStyle;rounded=0;orthogonalLoop=1;jettySize=auto;html=1;" edge="1" parent="1" source="ywe2W4ERjsgmAIUgEcNF-22">
          <mxGeometry relative="1" as="geometry">
            <mxPoint x="545" y="570" as="targetPoint" />
          </mxGeometry>
        </mxCell>
        <mxCell id="ywe2W4ERjsgmAIUgEcNF-22" value="接收订单&lt;br&gt;通知" style="rounded=0;whiteSpace=wrap;html=1;" vertex="1" parent="1">
          <mxGeometry x="500" y="500" width="90" height="40" as="geometry" />
        </mxCell>
        <mxCell id="ywe2W4ERjsgmAIUgEcNF-52" style="edgeStyle=orthogonalEdgeStyle;rounded=0;orthogonalLoop=1;jettySize=auto;html=1;entryX=0.5;entryY=0;entryDx=0;entryDy=0;" edge="1" parent="1" source="ywe2W4ERjsgmAIUgEcNF-24" target="ywe2W4ERjsgmAIUgEcNF-25">
          <mxGeometry relative="1" as="geometry" />
        </mxCell>
        <mxCell id="ywe2W4ERjsgmAIUgEcNF-24" value="审核订单&lt;br&gt;报关表格" style="rounded=0;whiteSpace=wrap;html=1;" vertex="1" parent="1">
          <mxGeometry x="500" y="570" width="90" height="40" as="geometry" />
        </mxCell>
        <mxCell id="ywe2W4ERjsgmAIUgEcNF-53" style="edgeStyle=orthogonalEdgeStyle;rounded=0;orthogonalLoop=1;jettySize=auto;html=1;entryX=1;entryY=0.5;entryDx=0;entryDy=0;" edge="1" parent="1" source="ywe2W4ERjsgmAIUgEcNF-25" target="ywe2W4ERjsgmAIUgEcNF-26">
          <mxGeometry relative="1" as="geometry">
            <mxPoint x="440" y="680" as="targetPoint" />
          </mxGeometry>
        </mxCell>
        <mxCell id="ywe2W4ERjsgmAIUgEcNF-25" value="通知工厂" style="rounded=0;whiteSpace=wrap;html=1;" vertex="1" parent="1">
          <mxGeometry x="500" y="640" width="90" height="40" as="geometry" />
        </mxCell>
        <mxCell id="ywe2W4ERjsgmAIUgEcNF-54" value="" style="edgeStyle=orthogonalEdgeStyle;rounded=0;orthogonalLoop=1;jettySize=auto;html=1;entryX=0.5;entryY=0;entryDx=0;entryDy=0;" edge="1" parent="1" source="ywe2W4ERjsgmAIUgEcNF-26" target="ywe2W4ERjsgmAIUgEcNF-27">
          <mxGeometry relative="1" as="geometry" />
        </mxCell>
        <mxCell id="ywe2W4ERjsgmAIUgEcNF-26" value="接受订单&lt;br&gt;通知" style="rounded=0;whiteSpace=wrap;html=1;" vertex="1" parent="1">
          <mxGeometry x="340" y="660" width="90" height="40" as="geometry" />
        </mxCell>
        <mxCell id="ywe2W4ERjsgmAIUgEcNF-55" style="edgeStyle=orthogonalEdgeStyle;rounded=0;orthogonalLoop=1;jettySize=auto;html=1;entryX=0.5;entryY=0;entryDx=0;entryDy=0;" edge="1" parent="1" source="ywe2W4ERjsgmAIUgEcNF-27" target="ywe2W4ERjsgmAIUgEcNF-28">
          <mxGeometry relative="1" as="geometry" />
        </mxCell>
        <mxCell id="ywe2W4ERjsgmAIUgEcNF-27" value="新建送货单" style="rounded=0;whiteSpace=wrap;html=1;" vertex="1" parent="1">
          <mxGeometry x="340" y="730" width="90" height="40" as="geometry" />
        </mxCell>
        <mxCell id="ywe2W4ERjsgmAIUgEcNF-56" style="edgeStyle=orthogonalEdgeStyle;rounded=0;orthogonalLoop=1;jettySize=auto;html=1;entryX=0.5;entryY=0;entryDx=0;entryDy=0;" edge="1" parent="1" source="ywe2W4ERjsgmAIUgEcNF-28" target="ywe2W4ERjsgmAIUgEcNF-29">
          <mxGeometry relative="1" as="geometry" />
        </mxCell>
        <mxCell id="ywe2W4ERjsgmAIUgEcNF-28" value="派车" style="rounded=0;whiteSpace=wrap;html=1;" vertex="1" parent="1">
          <mxGeometry x="340" y="810" width="90" height="40" as="geometry" />
        </mxCell>
        <mxCell id="ywe2W4ERjsgmAIUgEcNF-57" style="edgeStyle=orthogonalEdgeStyle;rounded=0;orthogonalLoop=1;jettySize=auto;html=1;entryX=0.5;entryY=0;entryDx=0;entryDy=0;" edge="1" parent="1" source="ywe2W4ERjsgmAIUgEcNF-29" target="ywe2W4ERjsgmAIUgEcNF-32">
          <mxGeometry relative="1" as="geometry" />
        </mxCell>
        <mxCell id="ywe2W4ERjsgmAIUgEcNF-29" value="导出送货单" style="rounded=0;whiteSpace=wrap;html=1;" vertex="1" parent="1">
          <mxGeometry x="340" y="880" width="90" height="40" as="geometry" />
        </mxCell>
        <mxCell id="ywe2W4ERjsgmAIUgEcNF-31" value="收获员" style="text;html=1;strokeColor=none;fillColor=none;align=center;verticalAlign=middle;whiteSpace=wrap;rounded=0;" vertex="1" parent="1">
          <mxGeometry x="650" y="30" width="100" height="20" as="geometry" />
        </mxCell>
        <mxCell id="ywe2W4ERjsgmAIUgEcNF-58" style="edgeStyle=orthogonalEdgeStyle;rounded=0;orthogonalLoop=1;jettySize=auto;html=1;entryX=0;entryY=0.5;entryDx=0;entryDy=0;" edge="1" parent="1" source="ywe2W4ERjsgmAIUgEcNF-32" target="ywe2W4ERjsgmAIUgEcNF-33">
          <mxGeometry relative="1" as="geometry" />
        </mxCell>
        <mxCell id="ywe2W4ERjsgmAIUgEcNF-32" value="安排送货" style="rounded=0;whiteSpace=wrap;html=1;" vertex="1" parent="1">
          <mxGeometry x="340" y="940" width="90" height="40" as="geometry" />
        </mxCell>
        <mxCell id="ywe2W4ERjsgmAIUgEcNF-59" value="" style="edgeStyle=orthogonalEdgeStyle;rounded=0;orthogonalLoop=1;jettySize=auto;html=1;entryX=0.5;entryY=0;entryDx=0;entryDy=0;" edge="1" parent="1" source="ywe2W4ERjsgmAIUgEcNF-33" target="ywe2W4ERjsgmAIUgEcNF-35">
          <mxGeometry relative="1" as="geometry" />
        </mxCell>
        <mxCell id="ywe2W4ERjsgmAIUgEcNF-33" value="接受送货" style="rounded=0;whiteSpace=wrap;html=1;" vertex="1" parent="1">
          <mxGeometry x="670" y="940" width="90" height="40" as="geometry" />
        </mxCell>
        <mxCell id="ywe2W4ERjsgmAIUgEcNF-60" style="edgeStyle=orthogonalEdgeStyle;rounded=0;orthogonalLoop=1;jettySize=auto;html=1;entryX=0.5;entryY=0;entryDx=0;entryDy=0;" edge="1" parent="1" source="ywe2W4ERjsgmAIUgEcNF-35" target="ywe2W4ERjsgmAIUgEcNF-36">
          <mxGeometry relative="1" as="geometry" />
        </mxCell>
        <mxCell id="ywe2W4ERjsgmAIUgEcNF-35" value="录入实际&lt;br&gt;送货信息" style="rounded=0;whiteSpace=wrap;html=1;" vertex="1" parent="1">
          <mxGeometry x="670" y="1000" width="90" height="40" as="geometry" />
        </mxCell>
        <mxCell id="ywe2W4ERjsgmAIUgEcNF-36" value="导出WMS&lt;br&gt;入库单" style="rounded=0;whiteSpace=wrap;html=1;" vertex="1" parent="1">
          <mxGeometry x="670" y="1070" width="90" height="40" as="geometry" />
        </mxCell>
      </root>
    </mxGraphModel>
  </diagram>
</mxfile>
